<?xml version="1.0" encoding="utf-8"?>
<!-- Generator: Adobe Illustrator 18.1.1, SVG Export Plug-In . SVG Version: 6.00 Build 0)  -->
<!DOCTYPE svg PUBLIC "-//W3C//DTD SVG 1.1//EN" "http://www.w3.org/Graphics/SVG/1.1/DTD/svg11.dtd">
<svg version="1.1" id="Layer_1" xmlns="http://www.w3.org/2000/svg" xmlns:xlink="http://www.w3.org/1999/xlink" x="0px" y="0px"
	 viewBox="0 0 28.8 17.9" enable-background="new 0 0 28.8 17.9" xml:space="preserve">
<g>
	<g>
		<path fill="#FFFFFF" d="M4.1,7.1h0.1c1.2,0,2.3,0,3.5,0c0.3,0,0.6,0,0.8,0C9,7,9.4,6.9,9.8,6.7c0.3-0.2,0.5-0.5,0.7-0.8
			c0.2-0.5,0.2-1,0-1.5C10.3,3.9,10,3.6,9.6,3.4c-0.1,0-0.2-0.1-0.3-0.1C8.8,3.2,8.2,3.1,7.6,3.1c-1.1,0-2.3,0-3.4,0
			c0,0-0.1,0-0.1,0V7.1z M4.1,14.8C4.2,14.8,4.2,14.8,4.1,14.8c1.4,0,2.7,0,4,0c0.4,0,0.8,0,1.2-0.2c0.7-0.2,1.2-0.6,1.4-1.3
			c0.2-0.5,0.2-1.1,0.1-1.6c-0.1-0.6-0.4-1.1-1-1.4c-0.1-0.1-0.3-0.1-0.4-0.2C9,10.1,8.6,10,8.1,10c-1.3,0-2.6,0-3.9,0
			c0,0-0.1,0-0.1,0V14.8z M11.9,8.3c0.1,0,0.1,0,0.1,0.1c0.5,0.2,1,0.5,1.4,0.9c0.6,0.5,0.9,1.2,1.1,2c0.2,0.6,0.2,1.3,0.1,1.9
			c-0.1,1.2-0.6,2.2-1.4,3.1c-0.7,0.8-1.5,1.2-2.5,1.5c-0.5,0.1-1,0.2-1.5,0.2c-0.4,0-0.9,0-1.3,0c-2.6,0-5.2,0-7.8,0H0V0
			c0,0,0.1,0,0.1,0c2.8,0,5.7,0,8.6,0c0.8,0,1.6,0.1,2.4,0.3c0.6,0.2,1.2,0.5,1.7,0.9c0.6,0.6,1.1,1.3,1.2,2.1
			c0.2,0.9,0.2,1.7,0,2.6c-0.2,0.8-0.6,1.5-1.3,1.9C12.4,8,12.2,8.1,12,8.2C12,8.3,12,8.3,11.9,8.3"/>
		<path fill="#FFFFFF" d="M19.5,9.7c0.2,0,5.7,0,5.8,0c0-0.2,0-0.3-0.1-0.5c-0.2-1.1-0.8-1.8-1.9-2.1c-0.6-0.2-1.2-0.2-1.8,0
			c-0.6,0.1-1.1,0.5-1.4,1c-0.3,0.4-0.4,0.8-0.5,1.2C19.6,9.3,19.6,9.5,19.5,9.7 M28.8,11.9h-9.4c0,0.1,0,0.2,0,0.3
			c0,0.4,0.1,0.8,0.3,1.2c0.3,0.8,0.9,1.3,1.7,1.6c0.7,0.2,1.4,0.2,2.1,0.1c0.6-0.1,1.1-0.5,1.5-1c0.1-0.1,0.1-0.2,0.2-0.3h3.4
			c0,0.3-0.1,0.5-0.2,0.8c-0.2,0.5-0.5,0.9-0.8,1.3c-0.9,1.1-2.1,1.7-3.5,2c-0.7,0.1-1.5,0.2-2.2,0.1c-1.5-0.1-2.9-0.7-4-1.7
			c-0.6-0.5-1-1.2-1.3-1.9c-0.2-0.5-0.3-1.1-0.4-1.7c-0.1-0.7-0.1-1.5-0.1-2.2c0.1-0.9,0.2-1.8,0.6-2.6c0.7-1.7,2-2.7,3.8-3.2
			c0.7-0.2,1.3-0.3,2-0.3c0.8,0,1.6,0.1,2.4,0.4C26.1,5,27,5.7,27.7,6.8c0.5,0.7,0.8,1.5,0.9,2.3c0.1,0.5,0.1,0.9,0.1,1.4
			c0,0.4,0,0.8,0,1.2C28.8,11.8,28.8,11.8,28.8,11.9"/>
		<path fill="#FFFFFF" d="M26,2.5h-7.2V0.8H26C26,0.8,26,2.4,26,2.5"/>
	</g>
</g>
</svg>
