<?xml version="1.0" encoding="utf-8"?>
<!-- Generator: Adobe Illustrator 18.1.1, SVG Export Plug-In . SVG Version: 6.00 Build 0)  -->
<!DOCTYPE svg PUBLIC "-//W3C//DTD SVG 1.1//EN" "http://www.w3.org/Graphics/SVG/1.1/DTD/svg11.dtd">
<svg version="1.1" id="Layer_1" xmlns="http://www.w3.org/2000/svg" xmlns:xlink="http://www.w3.org/1999/xlink" x="0px" y="0px"
	 viewBox="0 0 17.9 17.9" enable-background="new 0 0 17.9 17.9" xml:space="preserve">
<g>
	<g>
		<path fill="#FFFFFF" d="M14.1,5.5c0.4,0,0.7,0,1.1,0c0.4,0,0.7-0.3,0.7-0.7c0-0.7,0-1.4,0-2.1c0-0.4-0.3-0.7-0.7-0.7
			c-0.7,0-1.4,0-2.1,0c-0.4,0-0.7,0.3-0.7,0.7c0,0.7,0,1.4,0,2.1c0,0.1,0,0.1,0,0.2c0.1,0.3,0.4,0.5,0.7,0.5
			C13.4,5.5,13.8,5.5,14.1,5.5 M9,12.4c1.9,0,3.4-1.5,3.4-3.4c0-1.9-1.5-3.5-3.4-3.5C7,5.5,5.5,7.1,5.5,9C5.5,10.9,7.1,12.4,9,12.4
			 M3.6,7.6c-0.1,0-1.5,0-1.6,0v0.1c0,2.5,0,5,0,7.4c0,0,0,0.1,0,0.1c0,0.3,0.2,0.5,0.5,0.6c0.1,0,0.2,0,0.3,0c4.1,0,8.2,0,12.3,0
			c0,0,0,0,0.1,0c0.3,0,0.5-0.2,0.6-0.5c0-0.1,0-0.2,0-0.3c0-2.5,0-5,0-7.4c0,0,0,0,0,0c0,0,0,0,0-0.1c-0.1,0-1.5,0-1.6,0
			c0.3,1.1,0.2,2.2-0.2,3.3c-0.4,1.1-1.1,2-2.1,2.6c-1.8,1.2-4.1,1.3-6,0.1c-0.9-0.6-1.6-1.3-2.1-2.3C3.4,10.1,3.3,8.9,3.6,7.6 M9,0
			c2.3,0,4.6,0,6.9,0c0.6,0,1.1,0.2,1.5,0.6c0.4,0.4,0.6,0.9,0.6,1.4c0,4.6,0,9.2,0,13.8c0,1-0.7,1.9-1.7,2c-0.1,0-0.2,0-0.4,0
			c-1.7,0-3.4,0-5.1,0c-2.9,0-5.8,0-8.7,0c-0.3,0-0.6-0.1-0.9-0.2c-0.7-0.3-1.1-0.8-1.2-1.5c0-0.1,0-0.2,0-0.4c0-0.9,0-1.8,0-2.7
			c0-3.7,0-7.3,0-11c0-0.3,0.1-0.6,0.2-0.9C0.5,0.5,1,0.2,1.7,0C1.9,0,2,0,2.1,0C4.4,0,6.7,0,9,0"/>
	</g>
</g>
</svg>
