<?xml version="1.0" encoding="utf-8"?>
<!-- Generator: Adobe Illustrator 18.1.1, SVG Export Plug-In . SVG Version: 6.00 Build 0)  -->
<!DOCTYPE svg PUBLIC "-//W3C//DTD SVG 1.1//EN" "http://www.w3.org/Graphics/SVG/1.1/DTD/svg11.dtd">
<svg version="1.1" id="Layer_1" xmlns="http://www.w3.org/2000/svg" xmlns:xlink="http://www.w3.org/1999/xlink" x="0px" y="0px"
	 viewBox="0 0 17.9 17.9" enable-background="new 0 0 17.9 17.9" xml:space="preserve">
<g>
	<g>
		<defs>
			<rect id="SVGID_1_" x="0" y="0" width="17.9" height="17.9"/>
		</defs>
		<clipPath id="SVGID_2_">
			<use xlink:href="#SVGID_1_"  overflow="visible"/>
		</clipPath>
		<path clip-path="url(#SVGID_2_)" fill="#FFFFFF" d="M10,5.8v1.7c0,0,0,0,0,0c0,0,0,0,0-0.1c0.2-0.3,0.4-0.6,0.7-0.9
			c0.5-0.5,1.1-0.8,1.8-1c0.5-0.1,1-0.1,1.5-0.1C14.6,5.6,15,5.8,15.5,6c0.8,0.4,1.4,1,1.8,1.8c0.2,0.5,0.4,1,0.5,1.5
			c0.1,0.6,0.2,1.1,0.2,1.7c0,2.3,0,4.6,0,6.9v0.1h-3.8c0,0,0,0,0,0c0,0,0,0,0-0.1v-6.4c0-0.3,0-0.6-0.1-1c-0.1-0.3-0.1-0.6-0.3-0.8
			c-0.3-0.5-0.7-0.8-1.3-0.9c-0.4,0-0.7,0-1.1,0.1c-0.4,0.2-0.8,0.5-1,0.9c-0.1,0.2-0.3,0.5-0.3,0.8c0,0.2,0,0.4,0,0.6v6.7v0.1
			c0,0,0,0,0,0c0,0,0,0,0,0c0,0,0,0,0,0c-1.3,0-2.5,0-3.8,0c0,0,0,0,0,0c0-4,0-8,0-12.1c0,0,0,0,0,0c0,0,0,0,0,0
			C7.5,5.8,8.7,5.8,10,5.8C10,5.8,10,5.8,10,5.8"/>
	</g>
	<rect x="0.2" y="5.8" fill="#FFFFFF" width="3.8" height="12.1"/>
	<g>
		<path fill="#FFFFFF" d="M2.2,0c0.3,0,0.6,0.1,0.9,0.2c0.6,0.3,1,0.8,1.1,1.5C4.4,2.1,4.3,2.6,4.1,3C3.9,3.5,3.5,3.9,3,4
			C2.7,4.2,2.3,4.2,1.9,4.2c-0.3,0-0.6-0.1-0.9-0.2c-0.6-0.3-1-0.9-1-1.6C0,1.9,0,1.4,0.3,1c0.3-0.5,0.7-0.8,1.2-0.9
			C1.7,0,1.9,0,2.2,0"/>
	</g>
</g>
</svg>
