<?xml version="1.0" encoding="utf-8"?>
<!-- Generator: Adobe Illustrator 18.0.0, SVG Export Plug-In . SVG Version: 6.00 Build 0)  -->
<!DOCTYPE svg PUBLIC "-//W3C//DTD SVG 1.1//EN" "http://www.w3.org/Graphics/SVG/1.1/DTD/svg11.dtd">
<svg version="1.1" id="Layer_1" xmlns="http://www.w3.org/2000/svg" xmlns:xlink="http://www.w3.org/1999/xlink" x="0px" y="0px"
	 viewBox="0 0 792 612" enable-background="new 0 0 792 612" xml:space="preserve">
<g>
	<path fill="#FFFFFF" d="M201.1,185.8v47.3c-22.9,12.6-53.2,20-83.6,20C46.6,253.1,0,214.7,0,156.3C0,94.9,47.3,52,114.6,52
		c27.4,0,53.2,5.9,77.6,17.7l5.9,45.1h-20.7c-3.7-11.1-6.7-14.8-15.5-25.1c-14.8-16.3-30.3-24.4-48.1-24.4
		c-37,0-59.2,31.8-59.2,82.8c0,55.5,25.9,92.4,65.1,92.4c20,0,38.5-10.4,48.8-26.6c5.9-9.6,7.4-13.3,11.8-26.6h20.7V185.8z"/>
	<path fill="#FFFFFF" d="M289.1,206.5c0,22.2,3.7,27.4,19.2,29.6v13.3h-84.3v-13.3h3.7c13.3,0,19.2-8.1,19.2-29.6V89l-22.2-12.6
		v-8.1l54.7-15.5h9.6V206.5z"/>
	<path fill="#FFFFFF" d="M408.2,163.6c0-1.5,0-2.2,0-2.2c0-17.7-9.6-29.6-22.9-29.6c-14.8,0-24.4,12.6-24.4,31.8H408.2z
		 M452.6,216.9c-18.5,23.7-40.7,35.5-67.3,35.5c-37.7,0-62.1-25.9-62.1-64.3c0-41.4,28.1-70.3,68.8-70.3c36.2,0,59.9,22.9,59.9,58.4
		h-89.5c2.2,25.9,22.2,45.8,45.1,45.8c11.1,0,20-3.7,33.3-14.1L452.6,216.9z"/>
	<path fill="#FFFFFF" d="M561.3,184.4c-30.3,7.4-41.4,15.5-41.4,28.1c0,11.1,7.4,19.2,16.3,19.2c7.4,0,14.8-3.7,25.1-11.8V184.4z
		 M622.7,233.2c-8.1,11.8-20,19.2-32.5,19.2c-14.1,0-22.9-5.9-28.1-19.2c-15.5,14.1-27.4,19.2-45.8,19.2
		c-24.4,0-40.7-11.8-40.7-29.6c0-14.1,11.1-28.1,29.6-35.5c8.9-3.7,20.7-7.4,34.8-11.1l17.7-3.7l3.7-1.5v-20.7
		c0-11.1-7.4-18.5-20-18.5s-20.7,7.4-20.7,17.7c0,3,0.7,5.9,2.2,11.1l-37.7,11.8c-3-6.7-4.4-12.6-4.4-18.5c0-22.9,25.1-35.5,68-35.5
		c23.7,0,40.7,5.2,48.1,14.1c5.2,5.9,5.9,11.1,5.9,24.4v46.6c0,16.3,1.5,20,6.7,20c1.5,0,3-0.7,5.2-1.5l3.7-1.5l1.5-0.7L622.7,233.2
		z"/>
	<path fill="#FFFFFF" d="M702.5,156.3L702.5,156.3c13.3-25.1,26.6-36.2,42.9-36.2c13.3,0,24.4,9.6,24.4,20c0,6.7-3,17-7.4,25.9
		c-2.2,5.2-6.7,7.4-10.4,7.4c-3.7,0-8.9-3.7-20.7-14.1c-3.7-3.7-5.9-4.4-8.1-4.4c-5.9,0-11.8,5.9-17.7,17.7c-3,5.2-3,8.1-3,14.8
		v19.2c0,23.7,4.4,29.6,24.4,29.6h1.5v13.3h-88v-13.3h1.5c14.1,0,19.2-8.1,19.2-29.6v-50.3l-22.9-14.1v-8.1l48.8-14.8h14.8v37H702.5
		z"/>
	<path fill="#FFFFFF" d="M133.1,367.7c-3.7-26.6-24.4-45.1-48.8-45.1c-17.7,0-30.3,9.6-30.3,24.4c0,7.4,3.7,14.1,11.1,19.2
		c8.1,5.9,16.3,10.4,38.5,20c30.3,13.3,42.9,20.7,52.5,34.8c6.7,8.9,10.4,20.7,10.4,32.5c0,35.5-30.3,56.9-80.6,56.9
		c-23.7,0-56.2-5.9-76.2-14.8l-1.5-48.1h22.9l0.7,2.2c6.7,22.2,13.3,31.8,28.8,39.9c7.4,3.7,15.5,5.9,23.7,5.9
		c19.2,0,32.5-11.1,32.5-25.9S108,443.9,88.7,435l-25.9-11.8C39.2,412.1,26.6,404,17,392.2c-5.9-6.7-9.6-17-9.6-27.4
		c0-32.5,32.5-55.5,76.9-55.5c16.3,0,29.6,2.2,48.8,8.1c11.1,3.7,13.3,4.4,20.7,8.1l2.2,42.9h-22.9V367.7z"/>
	<path fill="#FFFFFF" d="M242.6,454.3c0,15.5,1.5,22.2,4.4,28.8c3.7,7.4,12.6,13.3,20.7,13.3c17,0,30.3-20.7,30.3-45.1
		c0-27.4-14.8-48.1-34-48.1c-6.7,0-12.6,2.2-22.2,8.9v42.2H242.6z M242.6,395.8c14.1-13.3,29.6-20,45.1-20
		c31.1,0,54.7,27.4,54.7,62.9c0,42.9-31.1,71.7-76.9,71.7c-8.9,0-12.6-0.7-22.2-2.2v10.4c0,21.4,5.2,29.6,19.2,29.6h3v13.3h-85
		v-13.3h2.2c13.3,0,19.2-8.1,19.2-29.6V412.9l-20.7-14.1v-8.9l46.6-14.8h14.8V395.8z"/>
	<path fill="#FFFFFF" d="M448.1,441.7c-30.3,7.4-41.4,15.5-41.4,28.1c0,11.1,7.4,19.2,16.3,19.2c7.4,0,14.8-3.7,25.1-11.8
		L448.1,441.7L448.1,441.7z M509.5,490.5c-8.1,11.8-20,19.2-32.5,19.2c-14.1,0-22.9-5.9-28.1-19.2c-15.5,14.1-27.4,19.2-45.8,19.2
		c-24.4,0-40.7-11.8-40.7-29.6c0-14.1,11.1-28.1,29.6-35.5c8.9-3.7,20.7-7.4,34.8-11.1l17.7-3.7l3.7-1.5v-20.7
		c0-11.1-7.4-18.5-20-18.5c-12.6,0-20.7,7.4-20.7,17.7c0,3,0.7,5.9,2.2,11.1L372,429.9c-3-6.7-4.4-12.6-4.4-18.5
		c0-22.9,25.1-35.5,68-35.5c23.7,0,40.7,5.2,48.1,14.1c5.2,5.9,5.9,11.1,5.9,24.4v46.6c0,16.3,1.5,20,6.7,20c1.5,0,3-0.7,5.2-1.5
		l3.7-1.5l1.5-0.7L509.5,490.5z"/>
	<path fill="#FFFFFF" d="M650,475c-11.1,22.2-35.5,34.8-64.3,34.8c-20,0-34-5.9-45.8-18.5c-11.1-12.6-17.7-28.8-17.7-46.6
		c0-42.2,30.3-69.5,76.9-69.5c29.6,0,48.1,11.8,48.1,30.3c0,11.1-8.9,20-19.2,20c-8.9,0-14.8-5.9-19.2-20
		c-4.4-12.6-8.9-16.3-18.5-16.3c-16.3,0-28.1,14.8-28.1,35.5c0,30.3,20.7,55.5,46.6,55.5c11.8,0,19.2-3.7,31.1-14.8L650,475z"/>
	<path fill="#FFFFFF" d="M747.6,421c0-1.5,0-2.2,0-2.2c0-17.7-9.6-29.6-22.9-29.6c-14.8,0-24.4,12.6-24.4,31.8H747.6z M792,474.2
		c-18.5,23.7-40.7,35.5-67.3,35.5c-37.7,0-62.1-25.9-62.1-64.3c0-41.4,28.1-70.3,68.8-70.3c36.2,0,59.9,22.9,59.9,58.4h-89.5
		c2.2,25.9,22.2,45.8,45.1,45.8c11.1,0,20-3.7,33.3-14.1L792,474.2z"/>
</g>
</svg>
