<?xml version="1.0" encoding="utf-8"?>
<!-- Generator: Adobe Illustrator 18.1.1, SVG Export Plug-In . SVG Version: 6.00 Build 0)  -->
<!DOCTYPE svg PUBLIC "-//W3C//DTD SVG 1.1//EN" "http://www.w3.org/Graphics/SVG/1.1/DTD/svg11.dtd">
<svg version="1.1" id="Layer_1" xmlns="http://www.w3.org/2000/svg" xmlns:xlink="http://www.w3.org/1999/xlink" x="0px" y="0px"
	 viewBox="0 0 107.1 68.7" enable-background="new 0 0 107.1 68.7" xml:space="preserve">
<g>
	<path fill="#FFFFFF" d="M27.2,18.1v6.4c-3.1,1.7-7.2,2.7-11.3,2.7C6.3,27.2,0,22,0,14.1C0,5.8,6.4,0,15.5,0c3.7,0,7.2,0.8,10.5,2.4
		l0.8,6.1H24c-0.5-1.5-0.9-2-2.1-3.4c-2-2.2-4.1-3.3-6.5-3.3c-5,0-8,4.3-8,11.2c0,7.5,3.5,12.5,8.8,12.5c2.7,0,5.2-1.4,6.6-3.6
		c0.8-1.3,1-1.8,1.6-3.6H27.2z"/>
	<path fill="#FFFFFF" d="M39.1,20.9c0,3,0.5,3.7,2.6,4v1.8H30.3v-1.8h0.5c1.8,0,2.6-1.1,2.6-4V5l-3-1.7V2.2l7.4-2.1h1.3V20.9z"/>
	<path fill="#FFFFFF" d="M55.2,15.1c0-0.2,0-0.3,0-0.3c0-2.4-1.3-4-3.1-4c-2,0-3.3,1.7-3.3,4.3H55.2z M61.2,22.3
		c-2.5,3.2-5.5,4.8-9.1,4.8c-5.1,0-8.4-3.5-8.4-8.7c0-5.6,3.8-9.5,9.3-9.5c4.9,0,8.1,3.1,8.1,7.9H49c0.3,3.5,3,6.2,6.1,6.2
		c1.5,0,2.7-0.5,4.5-1.9L61.2,22.3z"/>
	<path fill="#FFFFFF" d="M75.9,17.9c-4.1,1-5.6,2.1-5.6,3.8c0,1.5,1,2.6,2.2,2.6c1,0,2-0.5,3.4-1.6V17.9z M84.2,24.5
		c-1.1,1.6-2.7,2.6-4.4,2.6c-1.9,0-3.1-0.8-3.8-2.6c-2.1,1.9-3.7,2.6-6.2,2.6c-3.3,0-5.5-1.6-5.5-4c0-1.9,1.5-3.8,4-4.8
		c1.2-0.5,2.8-1,4.7-1.5l2.4-0.5l0.5-0.2v-2.8c0-1.5-1-2.5-2.7-2.5c-1.7,0-2.8,1-2.8,2.4c0,0.4,0.1,0.8,0.3,1.5l-5.1,1.6
		c-0.4-0.9-0.6-1.7-0.6-2.5c0-3.1,3.4-4.8,9.2-4.8c3.2,0,5.5,0.7,6.5,1.9c0.7,0.8,0.8,1.5,0.8,3.3v6.3c0,2.2,0.2,2.7,0.9,2.7
		c0.2,0,0.4-0.1,0.7-0.2l0.5-0.2l0.2-0.1L84.2,24.5z"/>
	<path fill="#FFFFFF" d="M95,14.1L95,14.1c1.8-3.4,3.6-4.9,5.8-4.9c1.8,0,3.3,1.3,3.3,2.7c0,0.9-0.4,2.3-1,3.5c-0.3,0.7-0.9,1-1.4,1
		c-0.5,0-1.2-0.5-2.8-1.9c-0.5-0.5-0.8-0.6-1.1-0.6c-0.8,0-1.6,0.8-2.4,2.4C95,17,95,17.4,95,18.3v2.6c0,3.2,0.6,4,3.3,4h0.2v1.8
		H86.6v-1.8h0.2c1.9,0,2.6-1.1,2.6-4v-6.8l-3.1-1.9v-1.1l6.6-2h2V14.1z"/>
	<path fill="#FFFFFF" d="M18,42.7c-0.5-3.6-3.3-6.1-6.6-6.1c-2.4,0-4.1,1.3-4.1,3.3c0,1,0.5,1.9,1.5,2.6c1.1,0.8,2.2,1.4,5.2,2.7
		c4.1,1.8,5.8,2.8,7.1,4.7c0.9,1.2,1.4,2.8,1.4,4.4c0,4.8-4.1,7.7-10.9,7.7C8.4,62,4,61.2,1.3,60l-0.2-6.5h3.1l0.1,0.3
		c0.9,3,1.8,4.3,3.9,5.4c1,0.5,2.1,0.8,3.2,0.8c2.6,0,4.4-1.5,4.4-3.5c0-2-1.2-3.5-3.8-4.7l-3.5-1.6c-3.2-1.5-4.9-2.6-6.2-4.2
		C1.5,45.1,1,43.7,1,42.3c0-4.4,4.4-7.5,10.4-7.5c2.2,0,4,0.3,6.6,1.1c1.5,0.5,1.8,0.6,2.8,1.1l0.3,5.8H18z"/>
	<path fill="#FFFFFF" d="M32.8,54.4c0,2.1,0.2,3,0.6,3.9c0.5,1,1.7,1.8,2.8,1.8c2.3,0,4.1-2.8,4.1-6.1c0-3.7-2-6.5-4.6-6.5
		c-0.9,0-1.7,0.3-3,1.2V54.4z M32.8,46.5c1.9-1.8,4-2.7,6.1-2.7c4.2,0,7.4,3.7,7.4,8.5c0,5.8-4.2,9.7-10.4,9.7c-1.2,0-1.7-0.1-3-0.3
		v1.4c0,2.9,0.7,4,2.6,4h0.4v1.8H24.4v-1.8h0.3c1.8,0,2.6-1.1,2.6-4V48.8l-2.8-1.9v-1.2l6.3-2h2V46.5z"/>
	<path fill="#FFFFFF" d="M60.6,52.7c-4.1,1-5.6,2.1-5.6,3.8c0,1.5,1,2.6,2.2,2.6c1,0,2-0.5,3.4-1.6V52.7z M68.9,59.3
		c-1.1,1.6-2.7,2.6-4.4,2.6c-1.9,0-3.1-0.8-3.8-2.6c-2.1,1.9-3.7,2.6-6.2,2.6c-3.3,0-5.5-1.6-5.5-4c0-1.9,1.5-3.8,4-4.8
		c1.2-0.5,2.8-1,4.7-1.5l2.4-0.5l0.5-0.2v-2.8c0-1.5-1-2.5-2.7-2.5c-1.7,0-2.8,1-2.8,2.4c0,0.4,0.1,0.8,0.3,1.5l-5.1,1.6
		c-0.4-0.9-0.6-1.7-0.6-2.5c0-3.1,3.4-4.8,9.2-4.8c3.2,0,5.5,0.7,6.5,1.9c0.7,0.8,0.8,1.5,0.8,3.3v6.3c0,2.2,0.2,2.7,0.9,2.7
		c0.2,0,0.4-0.1,0.7-0.2l0.5-0.2l0.2-0.1L68.9,59.3z"/>
	<path fill="#FFFFFF" d="M87.9,57.2c-1.5,3-4.8,4.7-8.7,4.7c-2.7,0-4.6-0.8-6.2-2.5c-1.5-1.7-2.4-3.9-2.4-6.3
		c0-5.7,4.1-9.4,10.4-9.4c4,0,6.5,1.6,6.5,4.1c0,1.5-1.2,2.7-2.6,2.7c-1.2,0-2-0.8-2.6-2.7c-0.6-1.7-1.2-2.2-2.5-2.2
		c-2.2,0-3.8,2-3.8,4.8c0,4.1,2.8,7.5,6.3,7.5c1.6,0,2.6-0.5,4.2-2L87.9,57.2z"/>
	<path fill="#FFFFFF" d="M101.1,49.9c0-0.2,0-0.3,0-0.3c0-2.4-1.3-4-3.1-4c-2,0-3.3,1.7-3.3,4.3H101.1z M107.1,57.1
		c-2.5,3.2-5.5,4.8-9.1,4.8c-5.1,0-8.4-3.5-8.4-8.7c0-5.6,3.8-9.5,9.3-9.5c4.9,0,8.1,3.1,8.1,7.9H94.9c0.3,3.5,3,6.2,6.1,6.2
		c1.5,0,2.7-0.5,4.5-1.9L107.1,57.1z"/>
</g>
</svg>
